<svg width="24" height="24" viewBox="0 0 24 24" fill="none" xmlns="http://www.w3.org/2000/svg">
<path d="M7.00004 12H11M5.44004 4.14997L20.09 11.15C20.2591 11.2319 20.4017 11.3597 20.5015 11.5189C20.6012 11.6781 20.6541 11.8621 20.6541 12.05C20.6541 12.2378 20.6012 12.4219 20.5015 12.5811C20.4017 12.7402 20.2591 12.8681 20.09 12.95L5.44004 19.95C5.24556 20.0627 5.01878 20.1066 4.79629 20.0746C4.5738 20.0426 4.36858 19.9366 4.21373 19.7737C4.05888 19.6107 3.96345 19.4004 3.94282 19.1765C3.92219 18.9527 3.97758 18.7285 4.10004 18.54L6.82004 12.41C6.87449 12.2801 6.90254 12.1408 6.90254 12C6.90254 11.8592 6.87449 11.7198 6.82004 11.59L4.10004 5.45997C4.01743 5.27358 3.99378 5.06638 4.03224 4.86617C4.0707 4.66595 4.16944 4.48227 4.31523 4.33974C4.46101 4.19722 4.64688 4.10266 4.84792 4.06875C5.04896 4.03483 5.25556 4.06317 5.44004 4.14997Z" stroke="black" stroke-width="2" stroke-linecap="round" stroke-linejoin="round"/>
</svg>
