<svg width="40" height="40" viewBox="0 0 40 40" fill="none" xmlns="http://www.w3.org/2000/svg">
<path d="M23.3332 11.6667H19.1665C18.5035 11.6667 17.8676 11.9301 17.3987 12.399C16.9299 12.8678 16.6665 13.5037 16.6665 14.1667C16.6665 14.8298 16.9299 15.4657 17.3987 15.9345C17.8676 16.4034 18.5035 16.6667 19.1665 16.6667H20.8332C21.4962 16.6667 22.1321 16.9301 22.6009 17.399C23.0698 17.8678 23.3332 18.5037 23.3332 19.1667C23.3332 19.8298 23.0698 20.4657 22.6009 20.9345C22.1321 21.4034 21.4962 21.6667 20.8332 21.6667H16.6665" stroke="#08A045" stroke-width="2" stroke-linecap="round" stroke-linejoin="round"/>
<path d="M20 10V11.6667M20 21.6667V23.3333M10 35H30M33.3333 28.3333H6.66667C6.22464 28.3333 5.80072 28.1577 5.48816 27.8452C5.17559 27.5326 5 27.1087 5 26.6667V6.66667C5 6.22464 5.17559 5.80072 5.48816 5.48816C5.80072 5.17559 6.22464 5 6.66667 5H33.3333C33.7754 5 34.1993 5.17559 34.5118 5.48816C34.8244 5.80072 35 6.22464 35 6.66667V26.6667C35 27.1087 34.8244 27.5326 34.5118 27.8452C34.1993 28.1577 33.7754 28.3333 33.3333 28.3333Z" stroke="#08A045" stroke-width="2" stroke-linecap="round" stroke-linejoin="round"/>
</svg>
