<svg width="40" height="40" viewBox="0 0 40 40" fill="none" xmlns="http://www.w3.org/2000/svg">
<path d="M29.9998 33.3333H26.6665V35H29.9998V33.3333ZM29.9998 33.3333H9.99984M29.9998 33.3333C30.4419 33.3333 30.8658 33.1577 31.1783 32.8452C31.4909 32.5326 31.6665 32.1087 31.6665 31.6667V23.3333M9.99984 33.3333H13.3332V35H9.99984V33.3333ZM9.99984 33.3333C9.55781 33.3333 9.13389 33.1577 8.82133 32.8452C8.50877 32.5326 8.33317 32.1087 8.33317 31.6667V23.3333M31.6665 23.3333H8.33317M31.6665 23.3333V13.3333M8.33317 23.3333V13.3333M33.3332 23.3333H6.6665M31.6665 13.3333H8.33317M31.6665 13.3333V11.6667C31.6665 9.89856 30.9641 8.20286 29.7139 6.95262C28.4636 5.70238 26.7679 5 24.9998 5H14.9998C13.2317 5 11.536 5.70238 10.2858 6.95262C9.03555 8.20286 8.33317 9.89856 8.33317 11.6667V13.3333M33.3332 13.3333H6.6665M16.6665 16.6667V13.3333H23.3332V16.6667H16.6665ZM16.6665 26.6667V23.3333H23.3332V26.6667H16.6665Z" stroke="#08A045" stroke-width="2" stroke-linecap="round" stroke-linejoin="round"/>
</svg>
