<svg width="40" height="40" viewBox="0 0 40 40" fill="none" xmlns="http://www.w3.org/2000/svg">
<path d="M28.3333 28.3333V33.3333C28.3333 33.7754 28.1577 34.1993 27.8452 34.5118C27.5326 34.8244 27.1087 35 26.6667 35H6.66667C6.22464 35 5.80072 34.8244 5.48816 34.5118C5.17559 34.1993 5 33.7754 5 33.3333V6.66667C5 6.22464 5.17559 5.80072 5.48816 5.48816C5.80072 5.17559 6.22464 5 6.66667 5H26.6667" stroke="#08A045" stroke-width="2" stroke-linecap="round" stroke-linejoin="round"/>
<path d="M11.6665 28.3334V20.0001M18.3332 28.3334V25.0001M34.9998 25.0001L30.2832 20.2834M21.6665 16.6667C21.6665 17.6557 21.9597 18.6224 22.5092 19.4446C23.0586 20.2668 23.8395 20.9077 24.7531 21.2861C25.6667 21.6646 26.6721 21.7636 27.642 21.5707C28.6119 21.3777 29.5028 20.9015 30.202 20.2023C30.9013 19.503 31.3775 18.6121 31.5704 17.6422C31.7634 16.6723 31.6643 15.667 31.2859 14.7533C30.9075 13.8397 30.2666 13.0588 29.4444 12.5094C28.6221 11.96 27.6554 11.6667 26.6665 11.6667C25.3404 11.6667 24.0687 12.1935 23.131 13.1312C22.1933 14.0689 21.6665 15.3407 21.6665 16.6667Z" stroke="#08A045" stroke-width="2" stroke-linecap="round" stroke-linejoin="round"/>
</svg>
