<svg width="93" height="17" viewBox="0 0 93 17" fill="none" xmlns="http://www.w3.org/2000/svg">
<path d="M9.1583 0.310669L11.0017 5.98402H16.967L12.141 9.49034L13.9843 15.1637L9.1583 11.6574L4.33226 15.1637L6.17565 9.49034L1.34961 5.98402H7.31492L9.1583 0.310669Z" fill="#FEB800"/>
<path d="M34.222 0.310669L36.0654 5.98402H42.0307L37.2047 9.49034L39.0481 15.1637L34.222 11.6574L29.396 15.1637L31.2394 9.49034L26.4133 5.98402H32.3786L34.222 0.310669Z" fill="#FEB800"/>
<path d="M59.2857 0.310669L61.1291 5.98402H67.0944L62.2684 9.49034L64.1118 15.1637L59.2857 11.6574L54.4597 15.1637L56.3031 9.49034L51.477 5.98402H57.4424L59.2857 0.310669Z" fill="#FEB800"/>
<path d="M84.3495 0.310669L86.1928 5.98402H92.1582L87.3321 9.49034L89.1755 15.1637L84.3495 11.6574L79.5234 15.1637L81.3668 9.49034L76.5408 5.98402H82.5061L84.3495 0.310669Z" fill="#FEB800"/>
</svg>
