<svg width="24" height="24" viewBox="0 0 24 24" fill="none" xmlns="http://www.w3.org/2000/svg">
<path d="M14.5 7C12.1059 7.11107 9.83277 8.08426 8.1 9.74C7.73444 9.26416 7.2834 8.86061 6.77 8.55C6.20475 8.20085 5.55492 8.0126 4.89056 8.00555C4.22621 7.9985 3.57253 8.17292 3 8.51C3.0175 9.22145 3.21811 9.91637 3.58245 10.5277C3.94679 11.139 4.46257 11.6461 5.08 12C4.46257 12.3539 3.94679 12.861 3.58245 13.4723C3.21811 14.0836 3.0175 14.7786 3 15.49C3.5689 15.8331 4.22065 16.0144 4.885 16.0144C5.54935 16.0144 6.2011 15.8331 6.77 15.49C7.28694 15.1676 7.73821 14.7502 8.1 14.26C9.83277 15.9157 12.1059 16.8889 14.5 17C19.5 17 21 12 21 12C21 12 19.5 7 14.5 7Z" stroke="#08A045" stroke-width="2" stroke-linecap="round" stroke-linejoin="round"/>
</svg>
