<svg width="24" height="24" viewBox="0 0 24 24" fill="none" xmlns="http://www.w3.org/2000/svg">
<path d="M3.06982 13H10.9998C11.265 13 11.5194 12.8946 11.7069 12.7071C11.8945 12.5196 11.9998 12.2652 11.9998 12V7" stroke="#08A045" stroke-width="2" stroke-linecap="round" stroke-linejoin="round"/>
<path d="M6 3H18M3 21H17M12 7V3M20 7H8.47C7.72688 6.99947 6.99831 7.20595 6.36597 7.59631C5.73364 7.98666 5.22254 8.54544 4.89 9.21L3 13V16C3 16.2652 3.10536 16.5196 3.29289 16.7071C3.48043 16.8946 3.73478 17 4 17H12.12C12.9593 16.9987 13.777 16.7333 14.4572 16.2416C15.1373 15.7498 15.6456 15.0566 15.91 14.26L16.77 11.68C16.8371 11.4814 16.9649 11.3089 17.1354 11.1868C17.3058 11.0648 17.5104 10.9995 17.72 11H20C20.2652 11 20.5196 10.8946 20.7071 10.7071C20.8946 10.5196 21 10.2652 21 10V8C21 7.73478 20.8946 7.48043 20.7071 7.29289C20.5196 7.10536 20.2652 7 20 7ZM8 21H12V17H8V21Z" stroke="#08A045" stroke-width="2" stroke-linecap="round" stroke-linejoin="round"/>
</svg>
