<svg width="24" height="24" viewBox="0 0 24 24" fill="none" xmlns="http://www.w3.org/2000/svg">
<path d="M15.52 11.76L19.17 9.76001L21 11.59L15.96 16.63" stroke="#08A045" stroke-width="2" stroke-linecap="round" stroke-linejoin="round"/>
<path d="M6.35009 12.94C5.64713 12.8244 4.9878 12.5232 4.44024 12.0675C3.89267 11.6118 3.47675 11.0181 3.23546 10.3478C2.99417 9.67753 2.93626 8.95497 3.06773 8.25481C3.19919 7.55466 3.51526 6.90231 3.98326 6.36521C4.45126 5.82811 5.05421 5.42574 5.72979 5.19969C6.40536 4.97364 7.12905 4.93212 7.82605 5.07941C8.52305 5.2267 9.16807 5.55747 9.69443 6.03751C10.2208 6.51756 10.6094 7.12947 10.8201 7.80999" stroke="#08A045" stroke-width="2" stroke-linecap="round" stroke-linejoin="round"/>
<path d="M7.09 19H14.91C15.0492 19.0006 15.1871 18.972 15.3147 18.9163C15.4423 18.8605 15.5568 18.7787 15.6509 18.676C15.7451 18.5734 15.8167 18.4523 15.8613 18.3204C15.906 18.1885 15.9225 18.0487 15.91 17.91L15.09 8.91001C15.0675 8.66069 14.9522 8.42888 14.7671 8.26039C14.5819 8.09191 14.3403 7.99899 14.09 8.00001H7.91C7.65966 7.99899 7.41805 8.09191 7.2329 8.26039C7.04775 8.42888 6.93252 8.66069 6.91 8.91001L6.09 17.91C6.07746 18.0487 6.09403 18.1885 6.13864 18.3204C6.18326 18.4523 6.25493 18.5734 6.34906 18.676C6.4432 18.7787 6.55773 18.8605 6.68532 18.9163C6.81291 18.972 6.95075 19.0006 7.09 19Z" stroke="#08A045" stroke-width="2" stroke-linecap="round" stroke-linejoin="round"/>
</svg>
