<svg width="14" height="14" viewBox="0 0 14 14" fill="none" xmlns="http://www.w3.org/2000/svg">
<g clip-path="url(#clip0_849_52)">
<path d="M4.08333 12.2501H1.75V5.25005H4.08333V12.2501ZM4.08333 11.6667C4.85124 12.0507 5.69809 12.2505 6.55667 12.2501H9.00667C9.52466 12.251 10.0282 12.0795 10.438 11.7626C10.8478 11.4458 11.1405 11.0016 11.27 10.5001L12.215 6.72005C12.2617 6.54672 12.2677 6.36496 12.2327 6.18891C12.1976 6.01285 12.1224 5.84726 12.0129 5.70503C11.9034 5.56279 11.7626 5.44773 11.6013 5.36882C11.4401 5.28991 11.2628 5.24927 11.0833 5.25005H9.33333C9.4011 4.51909 9.42447 3.78468 9.40333 3.05089C9.39568 2.7012 9.25058 2.3686 8.99946 2.12513C8.74834 1.88166 8.41142 1.7469 8.06167 1.75005H8.0325C7.74049 1.74966 7.45708 1.84885 7.22906 2.03127C7.00104 2.21369 6.84204 2.46841 6.77833 2.75339C6.56833 3.62839 6.34667 4.40422 6.13083 5.04005C6.05289 5.27084 5.90466 5.47143 5.70694 5.6137C5.50922 5.75598 5.27192 5.8328 5.02833 5.83339H4.08333V11.6667Z" stroke="black" stroke-width="2" stroke-linecap="round" stroke-linejoin="round"/>
</g>
<defs>
<clipPath id="clip0_849_52">
<rect width="14" height="14" fill="white"/>
</clipPath>
</defs>
</svg>
