<svg width="16" height="16" viewBox="0 0 16 16" fill="none" xmlns="http://www.w3.org/2000/svg">
<path d="M4.95601 6.604C3.56201 6.91933 2.86534 7.07733 2.69934 7.61066C2.53334 8.144 3.00868 8.69933 3.95934 9.81066L4.20468 10.0973C4.47468 10.4133 4.60934 10.5713 4.67001 10.7667C4.73134 10.962 4.71068 11.1727 4.67001 11.5933L4.63268 11.9773C4.48934 13.46 4.41734 14.2013 4.85134 14.5307C5.28534 14.8607 5.93801 14.56 7.24268 13.9593L7.58068 13.8033C7.95134 13.6327 8.13668 13.5473 8.33334 13.5473C8.53001 13.5473 8.71534 13.6327 9.08668 13.8033L9.42401 13.9593C10.7287 14.5593 11.3813 14.8607 11.8153 14.5307C12.2493 14.2013 12.178 13.46 12.034 11.9773M12.7073 9.81066C13.658 8.69933 14.1333 8.144 13.9673 7.61066C13.802 7.07733 13.1047 6.91933 11.7107 6.604L11.3507 6.52266C10.954 6.43266 10.756 6.388 10.5973 6.26733C10.438 6.14733 10.336 5.964 10.132 5.598L9.94668 5.26466C9.22868 3.97733 8.87001 3.33333 8.33334 3.33333C7.79668 3.33333 7.43801 3.97733 6.72001 5.26466" stroke="#FEB800" stroke-width="1.5" stroke-linecap="round"/>
<path d="M3.32668 1.33333C3.32668 1.33333 3.51868 2.30533 3.94001 2.72333C4.36001 3.14133 5.33334 3.32666 5.33334 3.32666C5.33334 3.32666 4.36134 3.51866 3.94334 3.93999C3.52534 4.35999 3.34001 5.33333 3.34001 5.33333C3.34001 5.33333 3.14801 4.36133 2.72668 3.94333C2.30668 3.52533 1.33334 3.34 1.33334 3.34C1.33334 3.34 2.30534 3.148 2.72334 2.72666C3.14134 2.30666 3.32668 1.33333 3.32668 1.33333Z" stroke="#FEB800" stroke-linejoin="round"/>
<path d="M12 3.33332H13.3333M12.6667 3.99999V2.66666" stroke="#FEB800" stroke-width="1.5" stroke-linecap="round"/>
</svg>
