<svg width="14" height="14" viewBox="0 0 14 14" fill="none" xmlns="http://www.w3.org/2000/svg">
<g clip-path="url(#clip0_849_54)">
<path d="M4.08333 8.75H1.75V1.75H4.08333V8.75ZM4.08333 8.16667H5.02833C5.27192 8.16726 5.50922 8.24408 5.70694 8.38635C5.90466 8.52863 6.05289 8.72922 6.13083 8.96C6.34667 9.59584 6.56833 10.3717 6.77833 11.2467C6.84204 11.5316 7.00104 11.7864 7.22906 11.9688C7.45708 12.1512 7.74049 12.2504 8.0325 12.25H8.06167C8.41042 12.2516 8.74585 12.1162 8.99571 11.8729C9.24556 11.6296 9.38986 11.2978 9.3975 10.9492C9.42058 10.2155 9.39915 9.48109 9.33333 8.75H11.0833C11.2603 8.74987 11.4349 8.70948 11.594 8.63189C11.753 8.5543 11.8923 8.44155 12.0013 8.30216C12.1104 8.16278 12.1863 8.00042 12.2233 7.82737C12.2603 7.65433 12.2575 7.47513 12.215 7.30334L11.27 3.5C11.1405 2.99846 10.8478 2.55427 10.438 2.23742C10.0282 1.92058 9.52466 1.7491 9.00667 1.75H6.55667C5.69809 1.7496 4.85124 1.94933 4.08333 2.33334V8.16667Z" stroke="black" stroke-width="2" stroke-linecap="round" stroke-linejoin="round"/>
</g>
<defs>
<clipPath id="clip0_849_54">
<rect width="14" height="14" fill="white"/>
</clipPath>
</defs>
</svg>
