<svg width="24" height="24" viewBox="0 0 24 24" fill="none" xmlns="http://www.w3.org/2000/svg">
<path d="M14.6201 12.26L19.1701 9.76001L21.0001 11.59L14.9601 17.63" stroke="#08A045" stroke-width="2" stroke-linecap="round" stroke-linejoin="round"/>
<path d="M8.99979 3V10M3.99979 21C3.86145 21.0004 3.72453 20.9722 3.59768 20.917C3.47083 20.8618 3.35681 20.7809 3.26282 20.6794C3.16884 20.5779 3.09693 20.458 3.05166 20.3273C3.00638 20.1966 2.98872 20.0579 2.99979 19.92L3.84979 8.92C3.86994 8.66889 3.98413 8.43463 4.16953 8.26406C4.35492 8.0935 4.59787 7.99919 4.84979 8H13.1498C13.4017 7.99919 13.6447 8.0935 13.83 8.26406C14.0154 8.43463 14.1296 8.66889 14.1498 8.92L14.9998 19.92C15.0109 20.0579 14.9932 20.1966 14.9479 20.3273C14.9026 20.458 14.8307 20.5779 14.7368 20.6794C14.6428 20.7809 14.5287 20.8618 14.4019 20.917C14.275 20.9722 14.1381 21.0004 13.9998 21H3.99979Z" stroke="#08A045" stroke-width="2" stroke-linecap="round" stroke-linejoin="round"/>
</svg>
