<svg width="104" height="104" viewBox="0 0 104 104" fill="none" xmlns="http://www.w3.org/2000/svg">
<path d="M13 39L49.6167 13.7366C50.3242 13.2707 51.1528 13.0223 52 13.0223C52.8472 13.0223 53.6758 13.2707 54.3833 13.7366L91 39M13 39L49.6167 63.3966C50.3242 63.8626 51.1528 64.1109 52 64.1109C52.8472 64.1109 53.6758 63.8626 54.3833 63.3966M13 39V86.6666C13 87.8159 13.4565 88.9181 14.2692 89.7308C15.0819 90.5434 16.1841 91 17.3333 91H86.6667C87.8159 91 88.9181 90.5434 89.7308 89.7308C90.5435 88.9181 91 87.8159 91 86.6666V39M54.3833 63.3966L91 39M54.3833 63.3966H54.6L91 39M62.4 58.0666L73.6667 69.3333M30.3333 69.3333L41.6 58.0666" stroke="black" stroke-width="2" stroke-linecap="round" stroke-linejoin="round"/>
</svg>
