<svg width="14" height="15" viewBox="0 0 14 15" fill="none" xmlns="http://www.w3.org/2000/svg">
<path d="M9.33346 6.91664L7.58346 8.08331L6.41679 6.91664L4.66679 8.08331M12.1801 8.35164C12.0457 9.16832 11.7201 9.94165 11.2298 10.6085C10.7396 11.2754 10.0986 11.8169 9.35925 12.1889C8.61987 12.5608 7.80302 12.7527 6.97536 12.7488C6.14769 12.745 5.33267 12.5455 4.59679 12.1666L1.75012 12.75L2.33346 9.90331C1.95275 9.16472 1.75279 8.34631 1.75003 7.51538C1.74727 6.68445 1.94178 5.86473 2.31756 5.12363C2.69335 4.38253 3.23968 3.7412 3.91163 3.2524C4.58359 2.76359 5.36197 2.44127 6.18277 2.31192C7.00358 2.18258 7.84336 2.24991 8.63308 2.50838C9.42279 2.76685 10.1399 3.20908 10.7254 3.79871C11.3108 4.38833 11.748 5.10851 12.0009 5.90002C12.2538 6.69153 12.3152 7.53177 12.1801 8.35164Z" stroke="white" stroke-width="2" stroke-linecap="round" stroke-linejoin="round"/>
</svg>
