<svg width="24" height="24" viewBox="0 0 24 24" fill="none" xmlns="http://www.w3.org/2000/svg">
<path d="M17.9999 9.00001V13L19.3799 14.38C19.6768 14.6765 19.879 15.0544 19.9609 15.4659C20.0429 15.8774 20.0009 16.3039 19.8403 16.6916C19.6797 17.0792 19.4077 17.4104 19.0587 17.6433C18.7097 17.8762 18.2995 18.0004 17.8799 18H6.11992C5.70035 18.0004 5.29011 17.8762 4.94113 17.6433C4.59215 17.4104 4.32014 17.0792 4.15953 16.6916C3.99892 16.3039 3.95693 15.8774 4.03889 15.4659C4.12084 15.0544 4.32305 14.6765 4.61992 14.38L5.99992 13V9.00001C5.99992 7.40871 6.63206 5.88259 7.75728 4.75737C8.88249 3.63215 10.4086 3.00001 11.9999 3.00001C13.0059 2.99805 13.9963 3.24908 14.8799 3.73001" stroke="black" stroke-width="2" stroke-linecap="round" stroke-linejoin="round"/>
<path d="M15 18H9C9 18.7956 9.31607 19.5587 9.87868 20.1213C10.4413 20.6839 11.2044 21 12 21C12.7956 21 13.5587 20.6839 14.1213 20.1213C14.6839 19.5587 15 18.7956 15 18ZM14 6C14 6.79565 14.3161 7.55871 14.8787 8.12132C15.4413 8.68393 16.2044 9 17 9C17.7956 9 18.5587 8.68393 19.1213 8.12132C19.6839 7.55871 20 6.79565 20 6C20 5.20435 19.6839 4.44129 19.1213 3.87868C18.5587 3.31607 17.7956 3 17 3C16.2044 3 15.4413 3.31607 14.8787 3.87868C14.3161 4.44129 14 5.20435 14 6Z" fill="white" stroke="black" stroke-width="2" stroke-linecap="round" stroke-linejoin="round"/>
</svg>
