<svg width="19" height="19" viewBox="0 0 19 19" fill="none" xmlns="http://www.w3.org/2000/svg">
<path d="M16.625 16.25L13.1892 12.8142M15.0417 8.33333C15.0417 9.58595 14.6702 10.8104 13.9743 11.8519C13.2784 12.8935 12.2893 13.7052 11.132 14.1846C9.97473 14.6639 8.70131 14.7893 7.47276 14.545C6.24422 14.3006 5.11573 13.6974 4.22999 12.8117C3.34426 11.9259 2.74107 10.7975 2.4967 9.56891C2.25232 8.34036 2.37774 7.06694 2.8571 5.90967C3.33645 4.75241 4.14821 3.76327 5.18972 3.06736C6.23124 2.37144 7.45572 2 8.70834 2C10.388 2 11.9989 2.66726 13.1867 3.85499C14.3744 5.04272 15.0417 6.65363 15.0417 8.33333Z" stroke="black" stroke-opacity="0.7" stroke-width="2" stroke-linecap="round" stroke-linejoin="round"/>
</svg>
