<svg width="14" height="14" viewBox="0 0 14 14" fill="none" xmlns="http://www.w3.org/2000/svg">
<path d="M4.6665 3.49996L6.99984 1.16663L9.33317 3.49996" stroke="black" stroke-width="2" stroke-linecap="round" stroke-linejoin="round"/>
<path d="M9.33317 5.83337H10.4998C10.6545 5.83337 10.8029 5.89483 10.9123 6.00423C11.0217 6.11362 11.0832 6.262 11.0832 6.41671V11.6667C11.0832 11.8214 11.0217 11.9698 10.9123 12.0792C10.8029 12.1886 10.6545 12.25 10.4998 12.25H3.49984C3.34513 12.25 3.19675 12.1886 3.08736 12.0792C2.97796 11.9698 2.9165 11.8214 2.9165 11.6667V6.41671C2.9165 6.262 2.97796 6.11362 3.08736 6.00423C3.19675 5.89483 3.34513 5.83337 3.49984 5.83337H4.6665" stroke="black" stroke-width="2" stroke-linecap="round" stroke-linejoin="round"/>
<path d="M7 1.16663V8.74996" stroke="black" stroke-width="2" stroke-linecap="round" stroke-linejoin="round"/>
</svg>
