<svg width="24" height="24" viewBox="0 0 24 24" fill="none" xmlns="http://www.w3.org/2000/svg">
<path d="M17.9998 17C18.9281 16.9894 19.8141 16.6105 20.463 15.9466C21.1119 15.2827 21.4704 14.3883 21.4598 13.46C21.4492 12.5317 21.0703 11.6457 20.4064 10.9968C19.7425 10.348 18.8481 9.98939 17.9198 10C17.7085 8.67823 17.0613 7.46508 16.0811 6.55352C15.1009 5.64196 13.844 5.08435 12.5104 4.96938C11.1768 4.85442 9.84304 5.1887 8.72129 5.91905C7.59955 6.64941 6.75424 7.73389 6.31983 9C5.38897 9.12671 4.53241 9.57703 3.9003 10.272C3.26818 10.967 2.90085 11.8623 2.86268 12.8009C2.82451 13.7396 3.11795 14.6618 3.69155 15.4058C4.26516 16.1498 5.08233 16.6681 5.99983 16.87" stroke="#08A045" stroke-width="2" stroke-linecap="round" stroke-linejoin="round"/>
<path d="M12 13C12 13 14 15.08 14 17C14 17.5304 13.7893 18.0391 13.4142 18.4142C13.0391 18.7893 12.5304 19 12 19C11.4696 19 10.9609 18.7893 10.5858 18.4142C10.2107 18.0391 10 17.5304 10 17C10 15.08 12 13 12 13Z" stroke="#08A045" stroke-width="2" stroke-linecap="round" stroke-linejoin="round"/>
</svg>
