<svg width="29" height="28" viewBox="0 0 29 28" fill="none" xmlns="http://www.w3.org/2000/svg">
<path d="M10.6058 9.54568C10.6439 10.112 10.7394 10.6657 10.8921 11.1939L10.1285 11.9575C9.86757 11.1939 9.70212 10.3857 9.64485 9.54568H10.6058ZM16.8803 17.1948C17.4212 17.3475 17.9748 17.4429 18.5348 17.4811V18.4293C17.6948 18.372 16.8867 18.2066 16.1167 17.952L16.8803 17.1948ZM11.2167 8.27295H8.98939C8.63939 8.27295 8.35303 8.55931 8.35303 8.90931C8.35303 14.8848 13.1958 19.7275 19.1712 19.7275C19.5212 19.7275 19.8076 19.4411 19.8076 19.0911V16.8702C19.8076 16.5202 19.5212 16.2339 19.1712 16.2339C18.3821 16.2339 17.6121 16.1066 16.8994 15.8711C16.8362 15.8482 16.7693 15.8374 16.7021 15.8393C16.5367 15.8393 16.3776 15.9029 16.2503 16.0239L14.8503 17.4239C13.0465 16.5014 11.5791 15.034 10.6567 13.2302L12.0567 11.8302C12.2348 11.652 12.2858 11.4039 12.2158 11.1811C11.9744 10.4481 11.8519 9.68109 11.853 8.90931C11.853 8.55931 11.5667 8.27295 11.2167 8.27295Z" fill="white"/>
<circle cx="14.0801" cy="14" r="14" fill="#C57B57" fill-opacity="0.3"/>
</svg>
