<svg width="29" height="29" viewBox="0 0 29 29" fill="none" xmlns="http://www.w3.org/2000/svg">
<path d="M14.08 14.0797C14.432 14.0797 14.7334 13.9542 14.9843 13.7034C15.2352 13.4525 15.3604 13.1513 15.36 12.7997C15.36 12.4477 15.2345 12.1462 14.9836 11.8954C14.7328 11.6445 14.4315 11.5193 14.08 11.5197C13.728 11.5197 13.4265 11.6451 13.1756 11.896C12.9248 12.1469 12.7995 12.4481 12.8 12.7997C12.8 13.1517 12.9254 13.4531 13.1763 13.704C13.4272 13.9549 13.7284 14.0801 14.08 14.0797ZM14.08 18.7837C15.3813 17.589 16.3466 16.5036 16.976 15.5274C17.6053 14.5511 17.92 13.6846 17.92 12.9277C17.92 11.765 17.5492 10.8131 16.8076 10.072C16.0661 9.33089 15.1569 8.96011 14.08 8.95969C13.0026 8.95969 12.0932 9.33046 11.3516 10.072C10.6101 10.8135 10.2395 11.7654 10.24 12.9277C10.24 13.685 10.5546 14.5518 11.184 15.528C11.8133 16.5042 12.7786 17.5894 14.08 18.7837ZM14.08 20.4797C12.3626 19.0183 11.0801 17.6611 10.2323 16.408C9.38449 15.1549 8.96039 13.9948 8.95996 12.9277C8.95996 11.3277 9.47473 10.053 10.5043 9.10369C11.5338 8.15435 12.7257 7.67969 14.08 7.67969C15.4346 7.67969 16.6267 8.15435 17.6563 9.10369C18.6858 10.053 19.2004 11.3277 19.2 12.9277C19.2 13.9943 18.7759 15.1544 17.9276 16.408C17.0794 17.6615 15.7969 19.0188 14.08 20.4797Z" fill="white"/>
<ellipse cx="14.08" cy="14.08" rx="14.08" ry="14.08" fill="#C57B57" fill-opacity="0.3"/>
</svg>
